<svg width="21" height="21" viewBox="0 0 21 21" fill="none" xmlns="http://www.w3.org/2000/svg">
<path d="M14.25 21H6.75C4.95979 21 3.2429 20.2888 1.97703 19.023C0.711159 17.7571 0 16.0402 0 14.25V6.75C0 4.95979 0.711159 3.2429 1.97703 1.97703C3.2429 0.711159 4.95979 0 6.75 0H14.25C16.0402 0 17.7571 0.711159 19.023 1.97703C20.2888 3.2429 21 4.95979 21 6.75V14.25C21 16.0402 20.2888 17.7571 19.023 19.023C17.7571 20.2888 16.0402 21 14.25 21ZM6.75 1.5C5.35761 1.5 4.02226 2.05312 3.03769 3.03769C2.05312 4.02226 1.5 5.35761 1.5 6.75V14.25C1.5 15.6424 2.05312 16.9777 3.03769 17.9623C4.02226 18.9469 5.35761 19.5 6.75 19.5H14.25C15.6424 19.5 16.9777 18.9469 17.9623 17.9623C18.9469 16.9777 19.5 15.6424 19.5 14.25V6.75C19.5 5.35761 18.9469 4.02226 17.9623 3.03769C16.9777 2.05312 15.6424 1.5 14.25 1.5H6.75Z" fill="black"/>
<path d="M10.5 15.75C9.72232 15.7564 8.95321 15.5872 8.25001 15.255C8.07376 15.1682 7.93862 15.0156 7.87365 14.8302C7.80868 14.6448 7.81907 14.4413 7.90259 14.2634C7.98611 14.0856 8.13609 13.9476 8.32027 13.8792C8.50445 13.8107 8.70813 13.8173 8.88751 13.8975C9.7014 14.2736 10.6231 14.3457 11.4856 14.1006C12.348 13.8556 13.0941 13.3096 13.5887 12.5618C14.0832 11.8139 14.2934 10.9136 14.1811 10.024C14.0689 9.13447 13.6417 8.31458 12.9769 7.71296C12.3121 7.11135 11.4538 6.76783 10.5575 6.74467C9.66118 6.72152 8.78625 7.02027 8.09129 7.58676C7.39633 8.15325 6.92734 8.94999 6.76933 9.83256C6.61133 10.7151 6.77476 11.6251 7.23001 12.3975C7.28428 12.4829 7.32071 12.5783 7.33713 12.6781C7.35355 12.7779 7.3496 12.88 7.32554 12.9783C7.30147 13.0765 7.25778 13.1689 7.1971 13.2498C7.13641 13.3308 7.05998 13.3986 6.97241 13.4492C6.88483 13.4998 6.78792 13.5322 6.68751 13.5444C6.5871 13.5566 6.48525 13.5483 6.38811 13.5202C6.29096 13.492 6.20052 13.4444 6.12222 13.3804C6.04393 13.3163 5.9794 13.2371 5.93251 13.1475C5.47282 12.3417 5.23716 11.4276 5.25001 10.5C5.25001 9.46165 5.55792 8.44662 6.13479 7.58326C6.71167 6.7199 7.53161 6.04699 8.49092 5.64963C9.45023 5.25227 10.5058 5.14831 11.5242 5.35088C12.5426 5.55345 13.4781 6.05347 14.2123 6.78769C14.9465 7.52192 15.4466 8.45738 15.6491 9.47578C15.8517 10.4942 15.7477 11.5498 15.3504 12.5091C14.953 13.4684 14.2801 14.2883 13.4168 14.8652C12.5534 15.4421 11.5384 15.75 10.5 15.75Z" fill="black"/>
<path d="M16.1252 6.00098C16.7466 6.00098 17.2502 5.4973 17.2502 4.87598C17.2502 4.25466 16.7466 3.75098 16.1252 3.75098C15.5039 3.75098 15.0002 4.25466 15.0002 4.87598C15.0002 5.4973 15.5039 6.00098 16.1252 6.00098Z" fill="black"/>
</svg>
